<svg width="131" height="119" viewBox="0 0 131 119" fill="none" xmlns="http://www.w3.org/2000/svg">
<path d="M4.704 1.848C5.92 1.848 6.97067 2.07733 7.856 2.536C8.752 2.984 9.43467 3.62933 9.904 4.472C10.384 5.31467 10.624 6.30667 10.624 7.448C10.624 8.58933 10.384 9.58133 9.904 10.424C9.43467 11.256 8.752 11.896 7.856 12.344C6.97067 12.7813 5.92 13 4.704 13H1.232V1.848H4.704ZM4.704 11.8C6.144 11.8 7.24267 11.4213 8 10.664C8.75733 9.896 9.136 8.824 9.136 7.448C9.136 6.06133 8.752 4.97867 7.984 4.2C7.22667 3.42133 6.13333 3.032 4.704 3.032H2.688V11.8H4.704ZM13.2965 2.808C13.0192 2.808 12.7845 2.712 12.5925 2.52C12.4005 2.328 12.3045 2.09333 12.3045 1.816C12.3045 1.53867 12.4005 1.304 12.5925 1.112C12.7845 0.919999 13.0192 0.823999 13.2965 0.823999C13.5632 0.823999 13.7872 0.919999 13.9685 1.112C14.1605 1.304 14.2565 1.53867 14.2565 1.816C14.2565 2.09333 14.1605 2.328 13.9685 2.52C13.7872 2.712 13.5632 2.808 13.2965 2.808ZM14.0005 4.232V13H12.5445V4.232H14.0005ZM19.586 13.144C18.914 13.144 18.3113 13.032 17.778 12.808C17.2447 12.5733 16.8233 12.2533 16.514 11.848C16.2047 11.432 16.034 10.9573 16.002 10.424H17.506C17.5487 10.8613 17.7513 11.2187 18.114 11.496C18.4873 11.7733 18.9727 11.912 19.57 11.912C20.1247 11.912 20.562 11.7893 20.882 11.544C21.202 11.2987 21.362 10.9893 21.362 10.616C21.362 10.232 21.1913 9.94933 20.85 9.768C20.5087 9.576 19.9807 9.38933 19.266 9.208C18.6153 9.03733 18.082 8.86667 17.666 8.696C17.2607 8.51467 16.9087 8.25333 16.61 7.912C16.322 7.56 16.178 7.10133 16.178 6.536C16.178 6.088 16.3113 5.67733 16.578 5.304C16.8447 4.93067 17.2233 4.63733 17.714 4.424C18.2047 4.2 18.7647 4.088 19.394 4.088C20.3647 4.088 21.1487 4.33333 21.746 4.824C22.3433 5.31467 22.6633 5.98667 22.706 6.84H21.25C21.218 6.38133 21.0313 6.01333 20.69 5.736C20.3593 5.45867 19.9113 5.32 19.346 5.32C18.8233 5.32 18.4073 5.432 18.098 5.656C17.7887 5.88 17.634 6.17333 17.634 6.536C17.634 6.824 17.7247 7.064 17.906 7.256C18.098 7.43733 18.3327 7.58667 18.61 7.704C18.898 7.81067 19.2927 7.93333 19.794 8.072C20.4233 8.24267 20.9353 8.41333 21.33 8.584C21.7247 8.744 22.0607 8.98933 22.338 9.32C22.626 9.65067 22.7753 10.0827 22.786 10.616C22.786 11.096 22.6527 11.528 22.386 11.912C22.1193 12.296 21.7407 12.6 21.25 12.824C20.77 13.0373 20.2153 13.144 19.586 13.144ZM24.2974 8.6C24.2974 7.69333 24.4787 6.904 24.8414 6.232C25.204 5.54933 25.7054 5.02133 26.3454 4.648C26.996 4.27467 27.7374 4.088 28.5694 4.088C29.6467 4.088 30.532 4.34933 31.2254 4.872C31.9294 5.39467 32.3934 6.12 32.6174 7.048H31.0494C30.9 6.51467 30.6067 6.09333 30.1694 5.784C29.7427 5.47467 29.2094 5.32 28.5694 5.32C27.7374 5.32 27.0654 5.608 26.5534 6.184C26.0414 6.74933 25.7854 7.55467 25.7854 8.6C25.7854 9.656 26.0414 10.472 26.5534 11.048C27.0654 11.624 27.7374 11.912 28.5694 11.912C29.2094 11.912 29.7427 11.7627 30.1694 11.464C30.596 11.1653 30.8894 10.7387 31.0494 10.184H32.6174C32.3827 11.08 31.9134 11.8 31.2094 12.344C30.5054 12.8773 29.6254 13.144 28.5694 13.144C27.7374 13.144 26.996 12.9573 26.3454 12.584C25.7054 12.2107 25.204 11.6827 24.8414 11C24.4787 10.3173 24.2974 9.51733 24.2974 8.6ZM36.0161 1.16V13H34.5601V1.16H36.0161ZM37.9536 8.584C37.9536 7.688 38.135 6.904 38.4976 6.232C38.8603 5.54933 39.3563 5.02133 39.9856 4.648C40.6256 4.27467 41.335 4.088 42.1136 4.088C42.8816 4.088 43.5483 4.25333 44.1136 4.584C44.679 4.91467 45.1003 5.33067 45.3776 5.832V4.232H46.8496V13H45.3776V11.368C45.0896 11.88 44.6576 12.3067 44.0816 12.648C43.5163 12.9787 42.855 13.144 42.0976 13.144C41.319 13.144 40.615 12.952 39.9856 12.568C39.3563 12.184 38.8603 11.6453 38.4976 10.952C38.135 10.2587 37.9536 9.46933 37.9536 8.584ZM45.3776 8.6C45.3776 7.93867 45.2443 7.36267 44.9776 6.872C44.711 6.38133 44.3483 6.008 43.8896 5.752C43.4416 5.48533 42.9456 5.352 42.4016 5.352C41.8576 5.352 41.3616 5.48 40.9136 5.736C40.4656 5.992 40.1083 6.36533 39.8416 6.856C39.575 7.34667 39.4416 7.92267 39.4416 8.584C39.4416 9.256 39.575 9.84267 39.8416 10.344C40.1083 10.8347 40.4656 11.2133 40.9136 11.48C41.3616 11.736 41.8576 11.864 42.4016 11.864C42.9456 11.864 43.4416 11.736 43.8896 11.48C44.3483 11.2133 44.711 10.8347 44.9776 10.344C45.2443 9.84267 45.3776 9.26133 45.3776 8.6ZM50.0621 2.808C49.7848 2.808 49.5501 2.712 49.3581 2.52C49.1661 2.328 49.0701 2.09333 49.0701 1.816C49.0701 1.53867 49.1661 1.304 49.3581 1.112C49.5501 0.919999 49.7848 0.823999 50.0621 0.823999C50.3288 0.823999 50.5528 0.919999 50.7341 1.112C50.9261 1.304 51.0221 1.53867 51.0221 1.816C51.0221 2.09333 50.9261 2.328 50.7341 2.52C50.5528 2.712 50.3288 2.808 50.0621 2.808ZM50.7661 4.232V13H49.3101V4.232H50.7661ZM63.7916 4.072C64.4743 4.072 65.0823 4.216 65.6156 4.504C66.149 4.78133 66.5703 5.20267 66.8796 5.768C67.189 6.33333 67.3436 7.02133 67.3436 7.832V13H65.9036V8.04C65.9036 7.16533 65.685 6.49867 65.2476 6.04C64.821 5.57067 64.2396 5.336 63.5036 5.336C62.7463 5.336 62.1436 5.58133 61.6956 6.072C61.2476 6.552 61.0236 7.25067 61.0236 8.168V13H59.5836V8.04C59.5836 7.16533 59.365 6.49867 58.9276 6.04C58.501 5.57067 57.9196 5.336 57.1836 5.336C56.4263 5.336 55.8236 5.58133 55.3756 6.072C54.9276 6.552 54.7036 7.25067 54.7036 8.168V13H53.2476V4.232H54.7036V5.496C54.9916 5.03733 55.3756 4.68533 55.8556 4.44C56.3463 4.19467 56.885 4.072 57.4716 4.072C58.2076 4.072 58.8583 4.23733 59.4236 4.568C59.989 4.89867 60.4103 5.384 60.6876 6.024C60.933 5.40533 61.3383 4.92533 61.9036 4.584C62.469 4.24267 63.0983 4.072 63.7916 4.072ZM77.732 8.28C77.732 8.55733 77.716 8.85067 77.684 9.16H70.676C70.7293 10.024 71.0227 10.7013 71.556 11.192C72.1 11.672 72.756 11.912 73.524 11.912C74.1533 11.912 74.676 11.768 75.092 11.48C75.5187 11.1813 75.8173 10.7867 75.988 10.296H77.556C77.3213 11.1387 76.852 11.8267 76.148 12.36C75.444 12.8827 74.5693 13.144 73.524 13.144C72.692 13.144 71.9453 12.9573 71.284 12.584C70.6333 12.2107 70.1213 11.6827 69.748 11C69.3747 10.3067 69.188 9.50667 69.188 8.6C69.188 7.69333 69.3693 6.89867 69.732 6.216C70.0947 5.53333 70.6013 5.01067 71.252 4.648C71.9133 4.27467 72.6707 4.088 73.524 4.088C74.356 4.088 75.092 4.26933 75.732 4.632C76.372 4.99467 76.8627 5.496 77.204 6.136C77.556 6.76533 77.732 7.48 77.732 8.28ZM76.228 7.976C76.228 7.42133 76.1053 6.94667 75.86 6.552C75.6147 6.14667 75.2787 5.84267 74.852 5.64C74.436 5.42667 73.972 5.32 73.46 5.32C72.724 5.32 72.0947 5.55467 71.572 6.024C71.06 6.49333 70.7667 7.144 70.692 7.976H76.228ZM81.1099 5.656C81.3659 5.15467 81.7285 4.76533 82.1979 4.488C82.6779 4.21067 83.2592 4.072 83.9419 4.072V5.576H83.5579C81.9259 5.576 81.1099 6.46133 81.1099 8.232V13H79.6539V4.232H81.1099V5.656ZM7.536 36.848V38.032H2.688V41.792H6.624V42.976H2.688V48H1.232V36.848H7.536ZM10.0465 37.808C9.76917 37.808 9.5345 37.712 9.3425 37.52C9.1505 37.328 9.0545 37.0933 9.0545 36.816C9.0545 36.5387 9.1505 36.304 9.3425 36.112C9.5345 35.92 9.76917 35.824 10.0465 35.824C10.3132 35.824 10.5372 35.92 10.7185 36.112C10.9105 36.304 11.0065 36.5387 11.0065 36.816C11.0065 37.0933 10.9105 37.328 10.7185 37.52C10.5372 37.712 10.3132 37.808 10.0465 37.808ZM10.7505 39.232V48H9.2945V39.232H10.7505ZM17.504 39.072C18.5707 39.072 19.4347 39.3973 20.096 40.048C20.7573 40.688 21.088 41.616 21.088 42.832V48H19.648V43.04C19.648 42.1653 19.4293 41.4987 18.992 41.04C18.5547 40.5707 17.9573 40.336 17.2 40.336C16.432 40.336 15.8187 40.576 15.36 41.056C14.912 41.536 14.688 42.2347 14.688 43.152V48H13.232V39.232H14.688V40.48C14.976 40.032 15.3653 39.6853 15.856 39.44C16.3573 39.1947 16.9067 39.072 17.504 39.072ZM22.9224 43.584C22.9224 42.688 23.1037 41.904 23.4664 41.232C23.829 40.5493 24.325 40.0213 24.9544 39.648C25.5944 39.2747 26.3037 39.088 27.0824 39.088C27.8504 39.088 28.517 39.2533 29.0824 39.584C29.6477 39.9147 30.069 40.3307 30.3464 40.832V39.232H31.8184V48H30.3464V46.368C30.0584 46.88 29.6264 47.3067 29.0504 47.648C28.485 47.9787 27.8237 48.144 27.0664 48.144C26.2877 48.144 25.5837 47.952 24.9544 47.568C24.325 47.184 23.829 46.6453 23.4664 45.952C23.1037 45.2587 22.9224 44.4693 22.9224 43.584ZM30.3464 43.6C30.3464 42.9387 30.213 42.3627 29.9464 41.872C29.6797 41.3813 29.317 41.008 28.8584 40.752C28.4104 40.4853 27.9144 40.352 27.3704 40.352C26.8264 40.352 26.3304 40.48 25.8824 40.736C25.4344 40.992 25.077 41.3653 24.8104 41.856C24.5437 42.3467 24.4104 42.9227 24.4104 43.584C24.4104 44.256 24.5437 44.8427 24.8104 45.344C25.077 45.8347 25.4344 46.2133 25.8824 46.48C26.3304 46.736 26.8264 46.864 27.3704 46.864C27.9144 46.864 28.4104 46.736 28.8584 46.48C29.317 46.2133 29.6797 45.8347 29.9464 45.344C30.213 44.8427 30.3464 44.2613 30.3464 43.6ZM38.5509 39.072C39.6175 39.072 40.4815 39.3973 41.1429 40.048C41.8042 40.688 42.1349 41.616 42.1349 42.832V48H40.6949V43.04C40.6949 42.1653 40.4762 41.4987 40.0389 41.04C39.6015 40.5707 39.0042 40.336 38.2469 40.336C37.4789 40.336 36.8655 40.576 36.4069 41.056C35.9589 41.536 35.7349 42.2347 35.7349 43.152V48H34.2789V39.232H35.7349V40.48C36.0229 40.032 36.4122 39.6853 36.9029 39.44C37.4042 39.1947 37.9535 39.072 38.5509 39.072ZM43.9693 43.6C43.9693 42.6933 44.1506 41.904 44.5133 41.232C44.8759 40.5493 45.3773 40.0213 46.0173 39.648C46.6679 39.2747 47.4093 39.088 48.2413 39.088C49.3186 39.088 50.2039 39.3493 50.8973 39.872C51.6013 40.3947 52.0653 41.12 52.2893 42.048H50.7213C50.5719 41.5147 50.2786 41.0933 49.8413 40.784C49.4146 40.4747 48.8813 40.32 48.2413 40.32C47.4093 40.32 46.7373 40.608 46.2253 41.184C45.7133 41.7493 45.4573 42.5547 45.4573 43.6C45.4573 44.656 45.7133 45.472 46.2253 46.048C46.7373 46.624 47.4093 46.912 48.2413 46.912C48.8813 46.912 49.4146 46.7627 49.8413 46.464C50.2679 46.1653 50.5613 45.7387 50.7213 45.184H52.2893C52.0546 46.08 51.5853 46.8 50.8813 47.344C50.1773 47.8773 49.2973 48.144 48.2413 48.144C47.4093 48.144 46.6679 47.9573 46.0173 47.584C45.3773 47.2107 44.8759 46.6827 44.5133 46C44.1506 45.3173 43.9693 44.5173 43.9693 43.6ZM54.984 37.808C54.7067 37.808 54.472 37.712 54.28 37.52C54.088 37.328 53.992 37.0933 53.992 36.816C53.992 36.5387 54.088 36.304 54.28 36.112C54.472 35.92 54.7067 35.824 54.984 35.824C55.2507 35.824 55.4747 35.92 55.656 36.112C55.848 36.304 55.944 36.5387 55.944 36.816C55.944 37.0933 55.848 37.328 55.656 37.52C55.4747 37.712 55.2507 37.808 54.984 37.808ZM55.688 39.232V48H54.232V39.232H55.688ZM62.4415 39.072C63.5082 39.072 64.3722 39.3973 65.0335 40.048C65.6948 40.688 66.0255 41.616 66.0255 42.832V48H64.5855V43.04C64.5855 42.1653 64.3668 41.4987 63.9295 41.04C63.4922 40.5707 62.8948 40.336 62.1375 40.336C61.3695 40.336 60.7562 40.576 60.2975 41.056C59.8495 41.536 59.6255 42.2347 59.6255 43.152V48H58.1695V39.232H59.6255V40.48C59.9135 40.032 60.3028 39.6853 60.7935 39.44C61.2948 39.1947 61.8442 39.072 62.4415 39.072ZM72.0199 39.088C72.7772 39.088 73.4385 39.2533 74.0039 39.584C74.5799 39.9147 75.0065 40.3307 75.2839 40.832V39.232H76.7559V48.192C76.7559 48.992 76.5852 49.7013 76.2439 50.32C75.9025 50.9493 75.4119 51.44 74.7719 51.792C74.1425 52.144 73.4065 52.32 72.5639 52.32C71.4119 52.32 70.4519 52.048 69.6839 51.504C68.9159 50.96 68.4625 50.2187 68.3239 49.28H69.7639C69.9239 49.8133 70.2545 50.24 70.7559 50.56C71.2572 50.8907 71.8599 51.056 72.5639 51.056C73.3639 51.056 74.0145 50.8053 74.5159 50.304C75.0279 49.8027 75.2839 49.0987 75.2839 48.192V46.352C74.9959 46.864 74.5692 47.2907 74.0039 47.632C73.4385 47.9733 72.7772 48.144 72.0199 48.144C71.2412 48.144 70.5319 47.952 69.8919 47.568C69.2625 47.184 68.7665 46.6453 68.4039 45.952C68.0412 45.2587 67.8599 44.4693 67.8599 43.584C67.8599 42.688 68.0412 41.904 68.4039 41.232C68.7665 40.5493 69.2625 40.0213 69.8919 39.648C70.5319 39.2747 71.2412 39.088 72.0199 39.088ZM75.2839 43.6C75.2839 42.9387 75.1505 42.3627 74.8839 41.872C74.6172 41.3813 74.2545 41.008 73.7959 40.752C73.3479 40.4853 72.8519 40.352 72.3079 40.352C71.7639 40.352 71.2679 40.48 70.8199 40.736C70.3719 40.992 70.0145 41.3653 69.7479 41.856C69.4812 42.3467 69.3479 42.9227 69.3479 43.584C69.3479 44.256 69.4812 44.8427 69.7479 45.344C70.0145 45.8347 70.3719 46.2133 70.8199 46.48C71.2679 46.736 71.7639 46.864 72.3079 46.864C72.8519 46.864 73.3479 46.736 73.7959 46.48C74.2545 46.2133 74.6172 45.8347 74.8839 45.344C75.1505 44.8427 75.2839 44.2613 75.2839 43.6ZM8.688 75.112C8.688 76.04 8.368 76.8133 7.728 77.432C7.09867 78.04 6.13333 78.344 4.832 78.344H2.688V83H1.232V71.848H4.832C6.09067 71.848 7.04533 72.152 7.696 72.76C8.35733 73.368 8.688 74.152 8.688 75.112ZM4.832 77.144C5.64267 77.144 6.24 76.968 6.624 76.616C7.008 76.264 7.2 75.7627 7.2 75.112C7.2 73.736 6.41067 73.048 4.832 73.048H2.688V77.144H4.832ZM11.9536 75.656C12.2096 75.1547 12.5723 74.7653 13.0416 74.488C13.5216 74.2107 14.103 74.072 14.7856 74.072V75.576H14.4016C12.7696 75.576 11.9536 76.4613 11.9536 78.232V83H10.4976V74.232H11.9536V75.656ZM17.2184 72.808C16.941 72.808 16.7064 72.712 16.5144 72.52C16.3224 72.328 16.2264 72.0933 16.2264 71.816C16.2264 71.5387 16.3224 71.304 16.5144 71.112C16.7064 70.92 16.941 70.824 17.2184 70.824C17.485 70.824 17.709 70.92 17.8904 71.112C18.0824 71.304 18.1784 71.5387 18.1784 71.816C18.1784 72.0933 18.0824 72.328 17.8904 72.52C17.709 72.712 17.485 72.808 17.2184 72.808ZM17.9224 74.232V83H16.4664V74.232H17.9224ZM23.6679 81.656L26.3879 74.232H27.9399L24.4999 83H22.8039L19.3639 74.232H20.9319L23.6679 81.656ZM28.8286 78.584C28.8286 77.688 29.01 76.904 29.3726 76.232C29.7353 75.5493 30.2313 75.0213 30.8606 74.648C31.5006 74.2747 32.21 74.088 32.9886 74.088C33.7566 74.088 34.4233 74.2533 34.9886 74.584C35.554 74.9147 35.9753 75.3307 36.2526 75.832V74.232H37.7246V83H36.2526V81.368C35.9646 81.88 35.5326 82.3067 34.9566 82.648C34.3913 82.9787 33.73 83.144 32.9726 83.144C32.194 83.144 31.49 82.952 30.8606 82.568C30.2313 82.184 29.7353 81.6453 29.3726 80.952C29.01 80.2587 28.8286 79.4693 28.8286 78.584ZM36.2526 78.6C36.2526 77.9387 36.1193 77.3627 35.8526 76.872C35.586 76.3813 35.2233 76.008 34.7646 75.752C34.3166 75.4853 33.8206 75.352 33.2766 75.352C32.7326 75.352 32.2366 75.48 31.7886 75.736C31.3406 75.992 30.9833 76.3653 30.7166 76.856C30.45 77.3467 30.3166 77.9227 30.3166 78.584C30.3166 79.256 30.45 79.8427 30.7166 80.344C30.9833 80.8347 31.3406 81.2133 31.7886 81.48C32.2366 81.736 32.7326 81.864 33.2766 81.864C33.8206 81.864 34.3166 81.736 34.7646 81.48C35.2233 81.2133 35.586 80.8347 35.8526 80.344C36.1193 79.8427 36.2526 79.2613 36.2526 78.6ZM39.6411 78.6C39.6411 77.6933 39.8225 76.904 40.1851 76.232C40.5478 75.5493 41.0491 75.0213 41.6891 74.648C42.3398 74.2747 43.0811 74.088 43.9131 74.088C44.9905 74.088 45.8758 74.3493 46.5691 74.872C47.2731 75.3947 47.7371 76.12 47.9611 77.048H46.3931C46.2438 76.5147 45.9505 76.0933 45.5131 75.784C45.0865 75.4747 44.5531 75.32 43.9131 75.32C43.0811 75.32 42.4091 75.608 41.8971 76.184C41.3851 76.7493 41.1291 77.5547 41.1291 78.6C41.1291 79.656 41.3851 80.472 41.8971 81.048C42.4091 81.624 43.0811 81.912 43.9131 81.912C44.5531 81.912 45.0865 81.7627 45.5131 81.464C45.9398 81.1653 46.2331 80.7387 46.3931 80.184H47.9611C47.7265 81.08 47.2571 81.8 46.5531 82.344C45.8491 82.8773 44.9691 83.144 43.9131 83.144C43.0811 83.144 42.3398 82.9573 41.6891 82.584C41.0491 82.2107 40.5478 81.6827 40.1851 81C39.8225 80.3173 39.6411 79.5173 39.6411 78.6ZM57.4559 74.232L52.1759 87.128H50.6719L52.3999 82.904L48.8639 74.232H50.4799L53.2319 81.336L55.9519 74.232H57.4559ZM70.6411 75.112C70.6411 76.04 70.3211 76.8133 69.6811 77.432C69.0518 78.04 68.0865 78.344 66.7851 78.344H64.6411V83H63.1851V71.848H66.7851C68.0438 71.848 68.9985 72.152 69.6491 72.76C70.3105 73.368 70.6411 74.152 70.6411 75.112ZM66.7851 77.144C67.5958 77.144 68.1931 76.968 68.5771 76.616C68.9611 76.264 69.1531 75.7627 69.1531 75.112C69.1531 73.736 68.3638 73.048 66.7851 73.048H64.6411V77.144H66.7851ZM76.2748 83.144C75.4534 83.144 74.7068 82.9573 74.0348 82.584C73.3734 82.2107 72.8508 81.6827 72.4668 81C72.0934 80.3067 71.9068 79.5067 71.9068 78.6C71.9068 77.704 72.0988 76.9147 72.4828 76.232C72.8774 75.5387 73.4108 75.0107 74.0828 74.648C74.7548 74.2747 75.5068 74.088 76.3388 74.088C77.1708 74.088 77.9228 74.2747 78.5948 74.648C79.2668 75.0107 79.7948 75.5333 80.1788 76.216C80.5734 76.8987 80.7708 77.6933 80.7708 78.6C80.7708 79.5067 80.5681 80.3067 80.1628 81C79.7681 81.6827 79.2294 82.2107 78.5468 82.584C77.8641 82.9573 77.1068 83.144 76.2748 83.144ZM76.2748 81.864C76.7974 81.864 77.2881 81.7413 77.7468 81.496C78.2054 81.2507 78.5734 80.8827 78.8508 80.392C79.1388 79.9013 79.2828 79.304 79.2828 78.6C79.2828 77.896 79.1441 77.2987 78.8668 76.808C78.5894 76.3173 78.2268 75.9547 77.7788 75.72C77.3308 75.4747 76.8454 75.352 76.3228 75.352C75.7894 75.352 75.2988 75.4747 74.8508 75.72C74.4134 75.9547 74.0614 76.3173 73.7948 76.808C73.5281 77.2987 73.3948 77.896 73.3948 78.6C73.3948 79.3147 73.5228 79.9173 73.7788 80.408C74.0454 80.8987 74.3974 81.2667 74.8348 81.512C75.2721 81.7467 75.7521 81.864 76.2748 81.864ZM84.1411 71.16V83H82.6851V71.16H84.1411ZM87.3746 72.808C87.0973 72.808 86.8626 72.712 86.6706 72.52C86.4786 72.328 86.3826 72.0933 86.3826 71.816C86.3826 71.5387 86.4786 71.304 86.6706 71.112C86.8626 70.92 87.0973 70.824 87.3746 70.824C87.6413 70.824 87.8653 70.92 88.0466 71.112C88.2386 71.304 88.3346 71.5387 88.3346 71.816C88.3346 72.0933 88.2386 72.328 88.0466 72.52C87.8653 72.712 87.6413 72.808 87.3746 72.808ZM88.0786 74.232V83H86.6226V74.232H88.0786ZM90.0161 78.6C90.0161 77.6933 90.1975 76.904 90.5601 76.232C90.9228 75.5493 91.4241 75.0213 92.0641 74.648C92.7148 74.2747 93.4561 74.088 94.2881 74.088C95.3655 74.088 96.2508 74.3493 96.9441 74.872C97.6481 75.3947 98.1121 76.12 98.3361 77.048H96.7681C96.6188 76.5147 96.3255 76.0933 95.8881 75.784C95.4615 75.4747 94.9281 75.32 94.2881 75.32C93.4561 75.32 92.7841 75.608 92.2721 76.184C91.7601 76.7493 91.5041 77.5547 91.5041 78.6C91.5041 79.656 91.7601 80.472 92.2721 81.048C92.7841 81.624 93.4561 81.912 94.2881 81.912C94.9281 81.912 95.4615 81.7627 95.8881 81.464C96.3148 81.1653 96.6081 80.7387 96.7681 80.184H98.3361C98.1015 81.08 97.6321 81.8 96.9281 82.344C96.2241 82.8773 95.3441 83.144 94.2881 83.144C93.4561 83.144 92.7148 82.9573 92.0641 82.584C91.4241 82.2107 90.9228 81.6827 90.5601 81C90.1975 80.3173 90.0161 79.5173 90.0161 78.6ZM107.831 74.232L102.551 87.128H101.047L102.775 82.904L99.2389 74.232H100.855L103.607 81.336L106.327 74.232H107.831ZM8.096 106.848V108.032H5.056V118H3.6V108.032H0.544V106.848H8.096ZM17.8883 113.28C17.8883 113.557 17.8723 113.851 17.8403 114.16H10.8323C10.8856 115.024 11.1789 115.701 11.7123 116.192C12.2563 116.672 12.9123 116.912 13.6803 116.912C14.3096 116.912 14.8323 116.768 15.2483 116.48C15.6749 116.181 15.9736 115.787 16.1443 115.296H17.7123C17.4776 116.139 17.0083 116.827 16.3043 117.36C15.6003 117.883 14.7256 118.144 13.6803 118.144C12.8483 118.144 12.1016 117.957 11.4403 117.584C10.7896 117.211 10.2776 116.683 9.90425 116C9.53092 115.307 9.34425 114.507 9.34425 113.6C9.34425 112.693 9.52558 111.899 9.88825 111.216C10.2509 110.533 10.7576 110.011 11.4083 109.648C12.0696 109.275 12.8269 109.088 13.6803 109.088C14.5123 109.088 15.2483 109.269 15.8883 109.632C16.5283 109.995 17.0189 110.496 17.3603 111.136C17.7123 111.765 17.8883 112.48 17.8883 113.28ZM16.3843 112.976C16.3843 112.421 16.2616 111.947 16.0163 111.552C15.7709 111.147 15.4349 110.843 15.0083 110.64C14.5923 110.427 14.1283 110.32 13.6163 110.32C12.8803 110.32 12.2509 110.555 11.7283 111.024C11.2163 111.493 10.9229 112.144 10.8483 112.976H16.3843ZM21.2661 110.656C21.5221 110.155 21.8848 109.765 22.3541 109.488C22.8341 109.211 23.4155 109.072 24.0981 109.072V110.576H23.7141C22.0821 110.576 21.2661 111.461 21.2661 113.232V118H19.8101V109.232H21.2661V110.656ZM36.3229 109.072C37.0055 109.072 37.6135 109.216 38.1469 109.504C38.6802 109.781 39.1015 110.203 39.4109 110.768C39.7202 111.333 39.8749 112.021 39.8749 112.832V118H38.4349V113.04C38.4349 112.165 38.2162 111.499 37.7789 111.04C37.3522 110.571 36.7709 110.336 36.0349 110.336C35.2775 110.336 34.6749 110.581 34.2269 111.072C33.7789 111.552 33.5549 112.251 33.5549 113.168V118H32.1149V113.04C32.1149 112.165 31.8962 111.499 31.4589 111.04C31.0322 110.571 30.4509 110.336 29.7149 110.336C28.9575 110.336 28.3549 110.581 27.9069 111.072C27.4589 111.552 27.2349 112.251 27.2349 113.168V118H25.7789V109.232H27.2349V110.496C27.5229 110.037 27.9069 109.685 28.3869 109.44C28.8775 109.195 29.4162 109.072 30.0029 109.072C30.7389 109.072 31.3895 109.237 31.9549 109.568C32.5202 109.899 32.9415 110.384 33.2189 111.024C33.4642 110.405 33.8695 109.925 34.4349 109.584C35.0002 109.243 35.6295 109.072 36.3229 109.072ZM45.3673 118.144C44.6953 118.144 44.0926 118.032 43.5593 117.808C43.0259 117.573 42.6046 117.253 42.2953 116.848C41.9859 116.432 41.8153 115.957 41.7833 115.424H43.2873C43.3299 115.861 43.5326 116.219 43.8953 116.496C44.2686 116.773 44.7539 116.912 45.3513 116.912C45.9059 116.912 46.3433 116.789 46.6633 116.544C46.9833 116.299 47.1433 115.989 47.1433 115.616C47.1433 115.232 46.9726 114.949 46.6313 114.768C46.2899 114.576 45.7619 114.389 45.0473 114.208C44.3966 114.037 43.8633 113.867 43.4473 113.696C43.0419 113.515 42.6899 113.253 42.3913 112.912C42.1033 112.56 41.9593 112.101 41.9593 111.536C41.9593 111.088 42.0926 110.677 42.3593 110.304C42.6259 109.931 43.0046 109.637 43.4953 109.424C43.9859 109.2 44.5459 109.088 45.1753 109.088C46.1459 109.088 46.9299 109.333 47.5273 109.824C48.1246 110.315 48.4446 110.987 48.4873 111.84H47.0313C46.9993 111.381 46.8126 111.013 46.4713 110.736C46.1406 110.459 45.6926 110.32 45.1273 110.32C44.6046 110.32 44.1886 110.432 43.8793 110.656C43.5699 110.88 43.4153 111.173 43.4153 111.536C43.4153 111.824 43.5059 112.064 43.6873 112.256C43.8793 112.437 44.1139 112.587 44.3913 112.704C44.6793 112.811 45.0739 112.933 45.5753 113.072C46.2046 113.243 46.7166 113.413 47.1113 113.584C47.5059 113.744 47.8419 113.989 48.1193 114.32C48.4073 114.651 48.5566 115.083 48.5673 115.616C48.5673 116.096 48.4339 116.528 48.1673 116.912C47.9006 117.296 47.5219 117.6 47.0313 117.824C46.5513 118.037 45.9966 118.144 45.3673 118.144ZM58.7123 118.144C57.8909 118.144 57.1443 117.957 56.4723 117.584C55.8109 117.211 55.2883 116.683 54.9043 116C54.5309 115.307 54.3443 114.507 54.3443 113.6C54.3443 112.704 54.5363 111.915 54.9203 111.232C55.3149 110.539 55.8483 110.011 56.5203 109.648C57.1923 109.275 57.9443 109.088 58.7763 109.088C59.6083 109.088 60.3603 109.275 61.0323 109.648C61.7043 110.011 62.2323 110.533 62.6163 111.216C63.0109 111.899 63.2083 112.693 63.2083 113.6C63.2083 114.507 63.0056 115.307 62.6003 116C62.2056 116.683 61.6669 117.211 60.9843 117.584C60.3016 117.957 59.5443 118.144 58.7123 118.144ZM58.7123 116.864C59.2349 116.864 59.7256 116.741 60.1843 116.496C60.6429 116.251 61.0109 115.883 61.2883 115.392C61.5763 114.901 61.7203 114.304 61.7203 113.6C61.7203 112.896 61.5816 112.299 61.3043 111.808C61.0269 111.317 60.6643 110.955 60.2163 110.72C59.7683 110.475 59.2829 110.352 58.7603 110.352C58.2269 110.352 57.7363 110.475 57.2883 110.72C56.8509 110.955 56.4989 111.317 56.2323 111.808C55.9656 112.299 55.8323 112.896 55.8323 113.6C55.8323 114.315 55.9603 114.917 56.2163 115.408C56.4829 115.899 56.8349 116.267 57.2723 116.512C57.7096 116.747 58.1896 116.864 58.7123 116.864ZM68.6906 110.432H66.8506V118H65.3946V110.432H64.2586V109.232H65.3946V108.608C65.3946 107.627 65.6453 106.912 66.1466 106.464C66.6586 106.005 67.4746 105.776 68.5946 105.776V106.992C67.9546 106.992 67.5013 107.12 67.2346 107.376C66.9786 107.621 66.8506 108.032 66.8506 108.608V109.232H68.6906V110.432ZM78.1899 118.112C77.4539 118.112 76.7925 117.984 76.2059 117.728C75.6299 117.461 75.1765 117.099 74.8459 116.64C74.5152 116.171 74.3445 115.632 74.3339 115.024H75.8859C75.9392 115.547 76.1525 115.989 76.5259 116.352C76.9099 116.704 77.4645 116.88 78.1899 116.88C78.8832 116.88 79.4272 116.709 79.8219 116.368C80.2272 116.016 80.4299 115.568 80.4299 115.024C80.4299 114.597 80.3125 114.251 80.0779 113.984C79.8432 113.717 79.5499 113.515 79.1979 113.376C78.8459 113.237 78.3712 113.088 77.7739 112.928C77.0379 112.736 76.4459 112.544 75.9979 112.352C75.5605 112.16 75.1819 111.861 74.8619 111.456C74.5525 111.04 74.3979 110.485 74.3979 109.792C74.3979 109.184 74.5525 108.645 74.8619 108.176C75.1712 107.707 75.6032 107.344 76.1579 107.088C76.7232 106.832 77.3685 106.704 78.0939 106.704C79.1392 106.704 79.9925 106.965 80.6539 107.488C81.3259 108.011 81.7045 108.704 81.7899 109.568H80.1899C80.1365 109.141 79.9125 108.768 79.5179 108.448C79.1232 108.117 78.6005 107.952 77.9499 107.952C77.3419 107.952 76.8459 108.112 76.4619 108.432C76.0779 108.741 75.8859 109.179 75.8859 109.744C75.8859 110.149 75.9979 110.48 76.2219 110.736C76.4565 110.992 76.7392 111.189 77.0699 111.328C77.4112 111.456 77.8859 111.605 78.4939 111.776C79.2299 111.979 79.8219 112.181 80.2699 112.384C80.7179 112.576 81.1019 112.88 81.4219 113.296C81.7419 113.701 81.9019 114.256 81.9019 114.96C81.9019 115.504 81.7579 116.016 81.4699 116.496C81.1819 116.976 80.7552 117.365 80.1899 117.664C79.6245 117.963 78.9579 118.112 78.1899 118.112ZM92.0445 113.28C92.0445 113.557 92.0285 113.851 91.9965 114.16H84.9885C85.0418 115.024 85.3352 115.701 85.8685 116.192C86.4125 116.672 87.0685 116.912 87.8365 116.912C88.4658 116.912 88.9885 116.768 89.4045 116.48C89.8312 116.181 90.1298 115.787 90.3005 115.296H91.8685C91.6338 116.139 91.1645 116.827 90.4605 117.36C89.7565 117.883 88.8818 118.144 87.8365 118.144C87.0045 118.144 86.2578 117.957 85.5965 117.584C84.9458 117.211 84.4338 116.683 84.0605 116C83.6872 115.307 83.5005 114.507 83.5005 113.6C83.5005 112.693 83.6818 111.899 84.0445 111.216C84.4072 110.533 84.9138 110.011 85.5645 109.648C86.2258 109.275 86.9832 109.088 87.8365 109.088C88.6685 109.088 89.4045 109.269 90.0445 109.632C90.6845 109.995 91.1752 110.496 91.5165 111.136C91.8685 111.765 92.0445 112.48 92.0445 113.28ZM90.5405 112.976C90.5405 112.421 90.4178 111.947 90.1725 111.552C89.9272 111.147 89.5912 110.843 89.1645 110.64C88.7485 110.427 88.2845 110.32 87.7725 110.32C87.0365 110.32 86.4072 110.555 85.8845 111.024C85.3725 111.493 85.0792 112.144 85.0045 112.976H90.5405ZM95.4224 110.656C95.6784 110.155 96.041 109.765 96.5104 109.488C96.9904 109.211 97.5717 109.072 98.2544 109.072V110.576H97.8704C96.2384 110.576 95.4224 111.461 95.4224 113.232V118H93.9664V109.232H95.4224V110.656ZM103.199 116.656L105.919 109.232H107.471L104.031 118H102.335L98.8951 109.232H100.463L103.199 116.656ZM109.656 107.808C109.379 107.808 109.144 107.712 108.952 107.52C108.76 107.328 108.664 107.093 108.664 106.816C108.664 106.539 108.76 106.304 108.952 106.112C109.144 105.92 109.379 105.824 109.656 105.824C109.923 105.824 110.147 105.92 110.328 106.112C110.52 106.304 110.616 106.539 110.616 106.816C110.616 107.093 110.52 107.328 110.328 107.52C110.147 107.712 109.923 107.808 109.656 107.808ZM110.36 109.232V118H108.904V109.232H110.36ZM112.297 113.6C112.297 112.693 112.479 111.904 112.841 111.232C113.204 110.549 113.705 110.021 114.345 109.648C114.996 109.275 115.737 109.088 116.569 109.088C117.647 109.088 118.532 109.349 119.225 109.872C119.929 110.395 120.393 111.12 120.617 112.048H119.049C118.9 111.515 118.607 111.093 118.169 110.784C117.743 110.475 117.209 110.32 116.569 110.32C115.737 110.32 115.065 110.608 114.553 111.184C114.041 111.749 113.785 112.555 113.785 113.6C113.785 114.656 114.041 115.472 114.553 116.048C115.065 116.624 115.737 116.912 116.569 116.912C117.209 116.912 117.743 116.763 118.169 116.464C118.596 116.165 118.889 115.739 119.049 115.184H120.617C120.383 116.08 119.913 116.8 119.209 117.344C118.505 117.877 117.625 118.144 116.569 118.144C115.737 118.144 114.996 117.957 114.345 117.584C113.705 117.211 113.204 116.683 112.841 116C112.479 115.317 112.297 114.517 112.297 113.6ZM130.56 113.28C130.56 113.557 130.544 113.851 130.512 114.16H123.504C123.557 115.024 123.851 115.701 124.384 116.192C124.928 116.672 125.584 116.912 126.352 116.912C126.981 116.912 127.504 116.768 127.92 116.48C128.347 116.181 128.645 115.787 128.816 115.296H130.384C130.149 116.139 129.68 116.827 128.976 117.36C128.272 117.883 127.397 118.144 126.352 118.144C125.52 118.144 124.773 117.957 124.112 117.584C123.461 117.211 122.949 116.683 122.576 116C122.203 115.307 122.016 114.507 122.016 113.6C122.016 112.693 122.197 111.899 122.56 111.216C122.923 110.533 123.429 110.011 124.08 109.648C124.741 109.275 125.499 109.088 126.352 109.088C127.184 109.088 127.92 109.269 128.56 109.632C129.2 109.995 129.691 110.496 130.032 111.136C130.384 111.765 130.56 112.48 130.56 113.28ZM129.056 112.976C129.056 112.421 128.933 111.947 128.688 111.552C128.443 111.147 128.107 110.843 127.68 110.64C127.264 110.427 126.8 110.32 126.288 110.32C125.552 110.32 124.923 110.555 124.4 111.024C123.888 111.493 123.595 112.144 123.52 112.976H129.056Z" fill="#544837"/>
</svg>
