<svg width="118" height="205" viewBox="0 0 118 205" fill="none" xmlns="http://www.w3.org/2000/svg">
<g clip-path="url(#clip0_0_5)">
<path d="M7.824 85.52H2.96L2.064 88H0.528L4.56 76.912H6.24L10.256 88H8.72L7.824 85.52ZM7.408 84.336L5.392 78.704L3.376 84.336H7.408ZM13.4693 80.864C13.7679 80.3413 14.2053 79.9147 14.7812 79.584C15.3573 79.2533 16.0133 79.088 16.7493 79.088C17.5386 79.088 18.2479 79.2747 18.8773 79.648C19.5066 80.0213 20.0026 80.5493 20.3653 81.232C20.7279 81.904 20.9093 82.688 20.9093 83.584C20.9093 84.4693 20.7279 85.2587 20.3653 85.952C20.0026 86.6453 19.5012 87.184 18.8612 87.568C18.2319 87.952 17.5279 88.144 16.7493 88.144C15.9919 88.144 15.3253 87.9787 14.7493 87.648C14.1839 87.3173 13.7573 86.896 13.4693 86.384V88H12.0133V76.16H13.4693V80.864ZM19.4213 83.584C19.4213 82.9227 19.2879 82.3467 19.0213 81.856C18.7546 81.3653 18.3919 80.992 17.9333 80.736C17.4853 80.48 16.9893 80.352 16.4453 80.352C15.9119 80.352 15.4159 80.4853 14.9573 80.752C14.5093 81.008 14.1466 81.3867 13.8693 81.888C13.6026 82.3787 13.4693 82.9493 13.4693 83.6C13.4693 84.2613 13.6026 84.8427 13.8693 85.344C14.1466 85.8347 14.5093 86.2133 14.9573 86.48C15.4159 86.736 15.9119 86.864 16.4453 86.864C16.9893 86.864 17.4853 86.736 17.9333 86.48C18.3919 86.2133 18.7546 85.8347 19.0213 85.344C19.2879 84.8427 19.4213 84.256 19.4213 83.584ZM26.6498 88.144C25.8284 88.144 25.0818 87.9573 24.4098 87.584C23.7484 87.2107 23.2258 86.6827 22.8418 86C22.4684 85.3067 22.2818 84.5067 22.2818 83.6C22.2818 82.704 22.4738 81.9147 22.8578 81.232C23.2524 80.5387 23.7858 80.0107 24.4578 79.648C25.1298 79.2747 25.8818 79.088 26.7138 79.088C27.5458 79.088 28.2978 79.2747 28.9698 79.648C29.6418 80.0107 30.1698 80.5333 30.5538 81.216C30.9484 81.8987 31.1458 82.6933 31.1458 83.6C31.1458 84.5067 30.9431 85.3067 30.5378 86C30.1431 86.6827 29.6044 87.2107 28.9218 87.584C28.2391 87.9573 27.4818 88.144 26.6498 88.144ZM26.6498 86.864C27.1724 86.864 27.6631 86.7413 28.1218 86.496C28.5804 86.2507 28.9484 85.8827 29.2258 85.392C29.5138 84.9013 29.6578 84.304 29.6578 83.6C29.6578 82.896 29.5191 82.2987 29.2418 81.808C28.9644 81.3173 28.6018 80.9547 28.1538 80.72C27.7058 80.4747 27.2204 80.352 26.6978 80.352C26.1644 80.352 25.6738 80.4747 25.2258 80.72C24.7884 80.9547 24.4364 81.3173 24.1698 81.808C23.9031 82.2987 23.7698 82.896 23.7698 83.6C23.7698 84.3147 23.8978 84.9173 24.1538 85.408C24.4204 85.8987 24.7724 86.2667 25.2098 86.512C25.6471 86.7467 26.1271 86.864 26.6498 86.864ZM40.8361 79.232V88H39.3801V86.704C39.1028 87.152 38.7135 87.504 38.2121 87.76C37.7215 88.0053 37.1775 88.128 36.5801 88.128C35.8975 88.128 35.2841 87.9893 34.7401 87.712C34.1961 87.424 33.7641 86.9973 33.4441 86.432C33.1348 85.8667 32.9801 85.1787 32.9801 84.368V79.232H34.4201V84.176C34.4201 85.04 34.6388 85.7067 35.0761 86.176C35.5135 86.6347 36.1108 86.864 36.8681 86.864C37.6468 86.864 38.2601 86.624 38.7081 86.144C39.1561 85.664 39.3801 84.9653 39.3801 84.048V79.232H40.8361ZM45.0705 80.432V85.6C45.0705 86.0267 45.1612 86.3307 45.3425 86.512C45.5238 86.6827 45.8385 86.768 46.2865 86.768H47.3585V88H46.0465C45.2358 88 44.6278 87.8133 44.2225 87.44C43.8172 87.0667 43.6145 86.4533 43.6145 85.6V80.432H42.4785V79.232H43.6145V77.024H45.0705V79.232H47.3585V80.432H45.0705ZM54.8123 76.848V83.904C54.8123 84.896 55.0523 85.632 55.5323 86.112C56.0229 86.592 56.7003 86.832 57.5643 86.832C58.4176 86.832 59.0843 86.592 59.5643 86.112C60.0549 85.632 60.3003 84.896 60.3003 83.904V76.848H61.7563V83.888C61.7563 84.816 61.5696 85.6 61.1962 86.24C60.8229 86.8693 60.3163 87.3387 59.6763 87.648C59.0469 87.9573 58.3376 88.112 57.5483 88.112C56.7589 88.112 56.0443 87.9573 55.4043 87.648C54.7749 87.3387 54.2736 86.8693 53.9003 86.24C53.5376 85.6 53.3563 84.816 53.3563 83.888V76.848H54.8123ZM67.2891 88.144C66.6171 88.144 66.0145 88.032 65.4811 87.808C64.9478 87.5733 64.5265 87.2533 64.2171 86.848C63.9078 86.432 63.7371 85.9573 63.7051 85.424H65.2091C65.2518 85.8613 65.4545 86.2187 65.8171 86.496C66.1905 86.7733 66.6758 86.912 67.2731 86.912C67.8278 86.912 68.2651 86.7893 68.5851 86.544C68.9051 86.2987 69.0651 85.9893 69.0651 85.616C69.0651 85.232 68.8945 84.9493 68.5531 84.768C68.2118 84.576 67.6838 84.3893 66.9691 84.208C66.3185 84.0373 65.7851 83.8667 65.3691 83.696C64.9638 83.5147 64.6118 83.2533 64.3131 82.912C64.0251 82.56 63.8811 82.1013 63.8811 81.536C63.8811 81.088 64.0145 80.6773 64.2811 80.304C64.5478 79.9307 64.9265 79.6373 65.4171 79.424C65.9078 79.2 66.4678 79.088 67.0971 79.088C68.0678 79.088 68.8518 79.3333 69.4491 79.824C70.0465 80.3147 70.3665 80.9867 70.4091 81.84H68.9531C68.9211 81.3813 68.7345 81.0133 68.3931 80.736C68.0625 80.4587 67.6145 80.32 67.0491 80.32C66.5265 80.32 66.1105 80.432 65.8011 80.656C65.4918 80.88 65.3371 81.1733 65.3371 81.536C65.3371 81.824 65.4278 82.064 65.6091 82.256C65.8011 82.4373 66.0358 82.5867 66.3131 82.704C66.6011 82.8107 66.9958 82.9333 67.4971 83.072C68.1265 83.2427 68.6385 83.4133 69.0331 83.584C69.4278 83.744 69.7638 83.9893 70.0411 84.32C70.3291 84.6507 70.4785 85.0827 70.4891 85.616C70.4891 86.096 70.3558 86.528 70.0891 86.912C69.8225 87.296 69.4438 87.6 68.9531 87.824C68.4731 88.0373 67.9185 88.144 67.2891 88.144ZM6.816 117.256C7.22133 117.32 7.58933 117.485 7.92 117.752C8.26133 118.019 8.528 118.349 8.72 118.744C8.92267 119.139 9.024 119.56 9.024 120.008C9.024 120.573 8.88 121.085 8.592 121.544C8.304 121.992 7.88267 122.349 7.328 122.616C6.784 122.872 6.13867 123 5.392 123H1.232V111.848H5.232C5.98933 111.848 6.63467 111.976 7.168 112.232C7.70133 112.477 8.10133 112.813 8.368 113.24C8.63467 113.667 8.768 114.147 8.768 114.68C8.768 115.341 8.58667 115.891 8.224 116.328C7.872 116.755 7.40267 117.064 6.816 117.256ZM2.688 116.664H5.136C5.81867 116.664 6.34667 116.504 6.72 116.184C7.09333 115.864 7.28 115.421 7.28 114.856C7.28 114.291 7.09333 113.848 6.72 113.528C6.34667 113.208 5.808 113.048 5.104 113.048H2.688V116.664ZM5.264 121.8C5.98933 121.8 6.55467 121.629 6.96 121.288C7.36533 120.947 7.568 120.472 7.568 119.864C7.568 119.245 7.35467 118.76 6.928 118.408C6.50133 118.045 5.93067 117.864 5.216 117.864H2.688V121.8H5.264ZM12.5005 111.16V123H11.0445V111.16H12.5005ZM18.806 123.144C17.9847 123.144 17.238 122.957 16.566 122.584C15.9047 122.211 15.382 121.683 14.998 121C14.6247 120.307 14.438 119.507 14.438 118.6C14.438 117.704 14.63 116.915 15.014 116.232C15.4087 115.539 15.942 115.011 16.614 114.648C17.286 114.275 18.038 114.088 18.87 114.088C19.702 114.088 20.454 114.275 21.126 114.648C21.798 115.011 22.326 115.533 22.71 116.216C23.1047 116.899 23.302 117.693 23.302 118.6C23.302 119.507 23.0993 120.307 22.694 121C22.2993 121.683 21.7607 122.211 21.078 122.584C20.3953 122.957 19.638 123.144 18.806 123.144ZM18.806 121.864C19.3287 121.864 19.8193 121.741 20.278 121.496C20.7367 121.251 21.1047 120.883 21.382 120.392C21.67 119.901 21.814 119.304 21.814 118.6C21.814 117.896 21.6753 117.299 21.398 116.808C21.1207 116.317 20.758 115.955 20.31 115.72C19.862 115.475 19.3767 115.352 18.854 115.352C18.3207 115.352 17.83 115.475 17.382 115.72C16.9447 115.955 16.5927 116.317 16.326 116.808C16.0593 117.299 15.926 117.896 15.926 118.6C15.926 119.315 16.054 119.917 16.31 120.408C16.5767 120.899 16.9287 121.267 17.366 121.512C17.8033 121.747 18.2833 121.864 18.806 121.864ZM28.8324 114.088C29.5897 114.088 30.251 114.253 30.8164 114.584C31.3924 114.915 31.819 115.331 32.0964 115.832V114.232H33.5684V123.192C33.5684 123.992 33.3977 124.701 33.0564 125.32C32.715 125.949 32.2244 126.44 31.5844 126.792C30.955 127.144 30.219 127.32 29.3764 127.32C28.2244 127.32 27.2644 127.048 26.4964 126.504C25.7284 125.96 25.275 125.219 25.1364 124.28H26.5764C26.7364 124.813 27.067 125.24 27.5684 125.56C28.0697 125.891 28.6724 126.056 29.3764 126.056C30.1764 126.056 30.827 125.805 31.3284 125.304C31.8404 124.803 32.0964 124.099 32.0964 123.192V121.352C31.8084 121.864 31.3817 122.291 30.8164 122.632C30.251 122.973 29.5897 123.144 28.8324 123.144C28.0537 123.144 27.3444 122.952 26.7044 122.568C26.075 122.184 25.579 121.645 25.2164 120.952C24.8537 120.259 24.6724 119.469 24.6724 118.584C24.6724 117.688 24.8537 116.904 25.2164 116.232C25.579 115.549 26.075 115.021 26.7044 114.648C27.3444 114.275 28.0537 114.088 28.8324 114.088ZM32.0964 118.6C32.0964 117.939 31.963 117.363 31.6964 116.872C31.4297 116.381 31.067 116.008 30.6084 115.752C30.1604 115.485 29.6644 115.352 29.1204 115.352C28.5764 115.352 28.0804 115.48 27.6324 115.736C27.1844 115.992 26.827 116.365 26.5604 116.856C26.2937 117.347 26.1604 117.923 26.1604 118.584C26.1604 119.256 26.2937 119.843 26.5604 120.344C26.827 120.835 27.1844 121.213 27.6324 121.48C28.0804 121.736 28.5764 121.864 29.1204 121.864C29.6644 121.864 30.1604 121.736 30.6084 121.48C31.067 121.213 31.4297 120.835 31.6964 120.344C31.963 119.843 32.0964 119.261 32.0964 118.6ZM0.688 152.416C0.688 151.328 0.933333 150.352 1.424 149.488C1.91467 148.613 2.58133 147.931 3.424 147.44C4.27733 146.949 5.22133 146.704 6.256 146.704C7.472 146.704 8.53333 146.997 9.44 147.584C10.3467 148.171 11.008 149.003 11.424 150.08H9.68C9.37067 149.408 8.92267 148.891 8.336 148.528C7.76 148.165 7.06667 147.984 6.256 147.984C5.47733 147.984 4.77867 148.165 4.16 148.528C3.54133 148.891 3.056 149.408 2.704 150.08C2.352 150.741 2.176 151.52 2.176 152.416C2.176 153.301 2.352 154.08 2.704 154.752C3.056 155.413 3.54133 155.925 4.16 156.288C4.77867 156.651 5.47733 156.832 6.256 156.832C7.06667 156.832 7.76 156.656 8.336 156.304C8.92267 155.941 9.37067 155.424 9.68 154.752H11.424C11.008 155.819 10.3467 156.645 9.44 157.232C8.53333 157.808 7.472 158.096 6.256 158.096C5.22133 158.096 4.27733 157.856 3.424 157.376C2.58133 156.885 1.91467 156.208 1.424 155.344C0.933333 154.48 0.688 153.504 0.688 152.416ZM17.4154 158.144C16.594 158.144 15.8474 157.957 15.1754 157.584C14.514 157.211 13.9914 156.683 13.6074 156C13.234 155.307 13.0474 154.507 13.0474 153.6C13.0474 152.704 13.2394 151.915 13.6234 151.232C14.018 150.539 14.5514 150.011 15.2234 149.648C15.8954 149.275 16.6474 149.088 17.4794 149.088C18.3114 149.088 19.0634 149.275 19.7354 149.648C20.4074 150.011 20.9354 150.533 21.3194 151.216C21.714 151.899 21.9114 152.693 21.9114 153.6C21.9114 154.507 21.7087 155.307 21.3034 156C20.9087 156.683 20.37 157.211 19.6874 157.584C19.0047 157.957 18.2474 158.144 17.4154 158.144ZM17.4154 156.864C17.938 156.864 18.4287 156.741 18.8874 156.496C19.346 156.251 19.714 155.883 19.9914 155.392C20.2794 154.901 20.4234 154.304 20.4234 153.6C20.4234 152.896 20.2847 152.299 20.0074 151.808C19.73 151.317 19.3674 150.955 18.9194 150.72C18.4714 150.475 17.986 150.352 17.4634 150.352C16.93 150.352 16.4394 150.475 15.9914 150.72C15.554 150.955 15.202 151.317 14.9354 151.808C14.6687 152.299 14.5354 152.896 14.5354 153.6C14.5354 154.315 14.6634 154.917 14.9194 155.408C15.186 155.899 15.538 156.267 15.9754 156.512C16.4127 156.747 16.8927 156.864 17.4154 156.864ZM28.0978 149.072C29.1644 149.072 30.0284 149.397 30.6898 150.048C31.3511 150.688 31.6818 151.616 31.6818 152.832V158H30.2418V153.04C30.2418 152.165 30.0231 151.499 29.5858 151.04C29.1484 150.571 28.5511 150.336 27.7938 150.336C27.0258 150.336 26.4124 150.576 25.9538 151.056C25.5058 151.536 25.2818 152.235 25.2818 153.152V158H23.8258V149.232H25.2818V150.48C25.5698 150.032 25.9591 149.685 26.4498 149.44C26.9511 149.195 27.5004 149.072 28.0978 149.072ZM35.8361 150.432V155.6C35.8361 156.027 35.9268 156.331 36.1081 156.512C36.2895 156.683 36.6041 156.768 37.0521 156.768H38.1241V158H36.8121C36.0015 158 35.3935 157.813 34.9881 157.44C34.5828 157.067 34.3801 156.453 34.3801 155.6V150.432H33.2441V149.232H34.3801V147.024H35.8361V149.232H38.1241V150.432H35.8361ZM39.3443 153.584C39.3443 152.688 39.5256 151.904 39.8883 151.232C40.2509 150.549 40.7469 150.021 41.3763 149.648C42.0163 149.275 42.7256 149.088 43.5043 149.088C44.2723 149.088 44.9389 149.253 45.5043 149.584C46.0696 149.915 46.4909 150.331 46.7683 150.832V149.232H48.2403V158H46.7683V156.368C46.4803 156.88 46.0483 157.307 45.4723 157.648C44.9069 157.979 44.2456 158.144 43.4883 158.144C42.7096 158.144 42.0056 157.952 41.3763 157.568C40.7469 157.184 40.2509 156.645 39.8883 155.952C39.5256 155.259 39.3443 154.469 39.3443 153.584ZM46.7683 153.6C46.7683 152.939 46.6349 152.363 46.3683 151.872C46.1016 151.381 45.7389 151.008 45.2803 150.752C44.8323 150.485 44.3363 150.352 43.7923 150.352C43.2483 150.352 42.7523 150.48 42.3043 150.736C41.8563 150.992 41.4989 151.365 41.2323 151.856C40.9656 152.347 40.8323 152.923 40.8323 153.584C40.8323 154.256 40.9656 154.843 41.2323 155.344C41.4989 155.835 41.8563 156.213 42.3043 156.48C42.7523 156.736 43.2483 156.864 43.7923 156.864C44.3363 156.864 44.8323 156.736 45.2803 156.48C45.7389 156.213 46.1016 155.835 46.3683 155.344C46.6349 154.843 46.7683 154.261 46.7683 153.6ZM50.1568 153.6C50.1568 152.693 50.3381 151.904 50.7008 151.232C51.0634 150.549 51.5648 150.021 52.2048 149.648C52.8554 149.275 53.5968 149.088 54.4288 149.088C55.5061 149.088 56.3914 149.349 57.0848 149.872C57.7888 150.395 58.2528 151.12 58.4768 152.048H56.9088C56.7594 151.515 56.4661 151.093 56.0288 150.784C55.6021 150.475 55.0688 150.32 54.4288 150.32C53.5968 150.32 52.9248 150.608 52.4128 151.184C51.9008 151.749 51.6448 152.555 51.6448 153.6C51.6448 154.656 51.9008 155.472 52.4128 156.048C52.9248 156.624 53.5968 156.912 54.4288 156.912C55.0688 156.912 55.6021 156.763 56.0288 156.464C56.4554 156.165 56.7488 155.739 56.9088 155.184H58.4768C58.2421 156.08 57.7728 156.8 57.0688 157.344C56.3648 157.877 55.4848 158.144 54.4288 158.144C53.5968 158.144 52.8554 157.957 52.2048 157.584C51.5648 157.211 51.0634 156.683 50.7008 156C50.3381 155.317 50.1568 154.517 50.1568 153.6ZM62.1955 150.432V155.6C62.1955 156.027 62.2862 156.331 62.4675 156.512C62.6488 156.683 62.9635 156.768 63.4115 156.768H64.4835V158H63.1715C62.3608 158 61.7528 157.813 61.3475 157.44C60.9422 157.067 60.7395 156.453 60.7395 155.6V150.432H59.6035V149.232H60.7395V147.024H62.1955V149.232H64.4835V150.432H62.1955ZM7.536 181.848V183.032H2.688V186.792H6.624V187.976H2.688V193H1.232V181.848H7.536ZM15.8865 190.52H11.0225L10.1265 193H8.5905L12.6225 181.912H14.3025L18.3185 193H16.7825L15.8865 190.52ZM15.4705 189.336L13.4545 183.704L11.4385 189.336H15.4705ZM29.0198 195.112L26.7958 192.888C26.2518 193.037 25.6971 193.112 25.1318 193.112C24.0971 193.112 23.1531 192.872 22.2998 192.392C21.4464 191.901 20.7691 191.224 20.2678 190.36C19.7771 189.485 19.5318 188.504 19.5318 187.416C19.5318 186.328 19.7771 185.352 20.2678 184.488C20.7691 183.613 21.4464 182.936 22.2998 182.456C23.1531 181.965 24.0971 181.72 25.1318 181.72C26.1771 181.72 27.1264 181.965 27.9798 182.456C28.8331 182.936 29.5051 183.608 29.9958 184.472C30.4864 185.336 30.7318 186.317 30.7318 187.416C30.7318 188.483 30.4971 189.443 30.0278 190.296C29.5584 191.149 28.9131 191.821 28.0918 192.312L30.9078 195.112H29.0198ZM21.0198 187.416C21.0198 188.301 21.1958 189.08 21.5478 189.752C21.9104 190.424 22.4011 190.941 23.0198 191.304C23.6491 191.667 24.3531 191.848 25.1318 191.848C25.9104 191.848 26.6091 191.667 27.2278 191.304C27.8571 190.941 28.3478 190.424 28.6998 189.752C29.0624 189.08 29.2438 188.301 29.2438 187.416C29.2438 186.52 29.0624 185.741 28.6998 185.08C28.3478 184.408 27.8624 183.891 27.2438 183.528C26.6251 183.165 25.9211 182.984 25.1318 182.984C24.3424 182.984 23.6384 183.165 23.0198 183.528C22.4011 183.891 21.9104 184.408 21.5478 185.08C21.1958 185.741 21.0198 186.52 21.0198 187.416Z" fill="#544837"/>
</g>
<defs>
<clipPath id="clip0_0_5">
<rect width="118" height="205" fill="white"/>
</clipPath>
</defs>
</svg>
